{"glyphs":{"0":{"ha":607,"x_min":0,"x_max":544,"o":"m 0 -1 l 0 950 l 0 996 l 0 1042 l 335 1042 l 335 1042 l 544 1042 l 544 42 l 544 42 l 544 -1 l 210 -1 l 0 -1 m 210 89 l 335 89 l 335 950 l 210 950 l 210 89 z "},"1":{"ha":336,"x_min":0,"x_max":274,"o":"m 63 -1 l 63 950 l 0 950 l 0 1042 l 63 1042 l 274 1042 l 274 -1 l 63 -1 z "},"2":{"ha":551,"x_min":0,"x_max":489,"o":"m 0 1039 l 278 1039 l 489 1039 l 489 554 l 489 464 l 210 464 l 210 89 l 489 89 l 489 -1 l 0 -1 l 0 89 l 0 554 l 210 554 l 278 554 l 278 949 l 0 949 l 0 1039 z "},"3":{"ha":488,"x_min":0,"x_max":425,"o":"m 425 1042 l 425 575 l 425 531 l 425 42 l 425 -1 l 0 -1 l 0 89 l 214 89 l 214 531 l 214 536 l 0 536 l 0 628 l 214 628 l 214 950 l 0 950 l 0 1042 l 214 1042 l 425 1042 z "},"4":{"ha":579,"x_min":0,"x_max":517,"o":"m 0 408 l 0 1042 l 211 1042 l 211 500 l 307 500 l 307 1042 l 517 1042 l 517 -1 l 307 -1 l 307 408 l 211 408 l 0 408 z "},"5":{"ha":551,"x_min":0,"x_max":489,"o":"m 489 -1 l 0 -1 l 0 89 l 279 89 l 279 464 l 0 464 l 0 554 l 0 1039 l 211 1039 l 489 1039 l 489 949 l 211 949 l 211 554 l 279 554 l 489 554 l 489 89 l 489 -1 z "},"6":{"ha":565,"x_min":0,"x_max":503,"o":"m 210 949 l 210 711 l 293 711 l 503 711 l 503 89 l 503 -1 l 0 -1 l 0 89 l 0 621 l 0 711 l 0 1039 l 210 1039 l 475 1039 l 475 949 l 210 949 m 210 621 l 210 89 l 293 89 l 293 621 l 210 621 z "},"7":{"ha":536,"x_min":0,"x_max":474,"o":"m 0 1042 l 264 1042 l 474 1042 l 474 575 l 474 531 l 474 -1 l 264 -1 l 264 531 l 264 575 l 264 950 l 0 950 l 0 1042 z "},"8":{"ha":564,"x_min":0,"x_max":501,"o":"m 211 1042 l 292 1042 l 501 1042 l 501 575 l 501 531 l 501 42 l 501 -1 l 0 -1 l 0 89 l 0 531 l 0 536 l 0 628 l 0 950 l 0 1042 l 211 1042 m 292 536 l 211 536 l 211 531 l 211 89 l 292 89 l 292 531 l 292 536 m 211 950 l 211 628 l 292 628 l 292 950 l 211 950 z "},"9":{"ha":565,"x_min":0,"x_max":503,"o":"m 28 90 l 292 90 l 292 326 l 210 326 l 0 326 l 0 949 l 0 1040 l 503 1040 l 503 949 l 503 418 l 503 326 l 503 -1 l 292 -1 l 28 -1 l 28 90 m 210 418 l 292 418 l 292 949 l 210 949 l 210 418 z "},"\u0000":{"ha":0,"x_min":0,"x_max":0,"o":""},"\r":{"ha":274,"x_min":0,"x_max":0,"o":""}," ":{"ha":274,"x_min":0,"x_max":0,"o":""},"e":{"ha":556,"x_min":0,"x_max":493,"o":"m 0 -1 l 0 692 l 44 692 l 493 692 l 493 239 l 493 215 l 213 215 l 213 90 l 493 90 l 493 -1 l 213 -1 l 0 -1 m 213 308 l 279 308 l 279 600 l 213 600 l 213 308 z "},"f":{"ha":397,"x_min":0,"x_max":335,"o":"m 0 1042 l 43 1042 l 335 1042 l 335 950 l 213 950 l 213 692 l 319 692 l 319 599 l 213 599 l 213 0 l 0 0 l 0 1042 z "},"g":{"ha":579,"x_min":0,"x_max":517,"o":"m 214 692 l 474 692 l 517 692 l 517 -206 l 378 -206 l 0 -206 l 0 -112 l 304 -112 l 304 -1 l 0 -1 l 0 44 l 0 692 l 214 692 m 214 600 l 214 90 l 304 90 l 304 600 l 214 600 z "},"h":{"ha":579,"x_min":0,"x_max":517,"o":"m 472 692 l 517 692 l 517 -1 l 303 -1 l 303 600 l 213 600 l 213 0 l 0 0 l 0 1042 l 213 1042 l 213 692 l 472 692 z "},"i":{"ha":276,"x_min":0,"x_max":214,"o":"m 214 879 l 214 735 l 0 735 l 0 879 l 214 879 m 0 692 l 214 692 l 214 -1 l 0 -1 l 0 692 z "},"j":{"ha":385,"x_min":-124,"x_max":322,"o":"m 321 735 l 108 735 l 108 879 l 321 879 l 321 735 m 322 692 l 322 -206 l 183 -206 l -124 -206 l -124 -112 l 110 -112 l 110 600 l 1 600 l 1 692 l 279 692 l 322 692 z "},"k":{"ha":669,"x_min":0,"x_max":607,"o":"m 214 0 l 0 0 l 0 1042 l 214 1042 l 214 528 l 411 692 l 556 692 l 413 572 l 607 -1 l 381 -1 l 236 426 l 214 407 l 214 0 z "},"l":{"ha":344,"x_min":0,"x_max":282,"o":"m 214 1042 l 214 90 l 282 90 l 282 -1 l 31 -1 l 0 -1 l 0 1042 l 214 1042 z "},"m":{"ha":860,"x_min":0,"x_max":797,"o":"m 0 522 l 213 522 l 213 0 l 0 0 l 0 522 m 797 692 l 797 -1 l 585 -1 l 585 600 l 503 600 l 503 -1 l 289 -1 l 289 600 l 279 600 l 0 600 l 0 692 l 797 692 z "},"n":{"ha":565,"x_min":0,"x_max":503,"o":"m 0 522 l 214 522 l 214 0 l 0 0 l 0 522 m 503 692 l 503 -1 l 289 -1 l 289 600 l 0 600 l 0 692 l 503 692 z "},"o":{"ha":558,"x_min":0,"x_max":496,"o":"m 493 692 l 496 692 l 496 -1 l 493 -1 l 493 -3 l 0 -1 l 0 692 l 493 692 m 214 90 l 282 90 l 282 600 l 214 600 l 214 90 z "},"p":{"ha":579,"x_min":0,"x_max":517,"o":"m 517 692 l 517 -1 l 213 -1 l 213 -206 l 0 -206 l 0 526 l 213 526 l 213 90 l 303 90 l 303 600 l 0 600 l 0 692 l 517 692 z "},"q":{"ha":579,"x_min":0,"x_max":517,"o":"m 0 -1 l 0 692 l 517 692 l 517 -206 l 304 -206 l 304 -1 l 0 -1 m 214 90 l 304 90 l 304 600 l 214 600 l 214 90 z "},"r":{"ha":565,"x_min":0,"x_max":503,"o":"m 503 692 l 503 413 l 290 413 l 290 600 l 214 600 l 214 0 l 0 0 l 0 692 l 503 692 z "},"s":{"ha":538,"x_min":0,"x_max":475,"o":"m 0 0 l 0 92 l 261 92 l 261 286 l 0 286 l 0 379 l 0 692 l 44 692 l 475 692 l 475 600 l 214 600 l 214 379 l 475 379 l 475 286 l 474 286 l 474 0 l 429 0 l 0 0 z "},"t":{"ha":361,"x_min":0,"x_max":299,"o":"m 213 1042 l 213 692 l 299 692 l 299 599 l 213 599 l 213 90 l 282 90 l 282 -1 l 31 -1 l 0 -1 l 0 1042 l 213 1042 z "},"u":{"ha":565,"x_min":0,"x_max":503,"o":"m 0 -1 l 0 692 l 213 692 l 213 90 l 289 90 l 289 690 l 501 690 l 503 -1 l 43 -1 l 0 -1 z "},"v":{"ha":582,"x_min":0,"x_max":519,"o":"m 519 147 l 307 147 l 307 689 l 519 689 l 519 147 m 519 90 l 519 -3 l 69 -3 l 0 692 l 214 692 l 275 90 l 519 90 z "},"w":{"ha":896,"x_min":0,"x_max":833,"o":"m 521 147 l 307 147 l 307 692 l 521 692 l 521 147 m 833 692 l 764 -3 l 71 -3 l 0 692 l 215 692 l 275 90 l 558 90 l 619 692 l 833 692 z "},"x":{"ha":668,"x_min":0,"x_max":606,"o":"m 207 297 l 0 692 l 242 692 l 332 521 l 426 692 l 532 692 l 382 422 l 606 -3 l 364 -3 l 258 200 l 147 -1 l 42 -1 l 207 297 z "},"y":{"ha":579,"x_min":0,"x_max":517,"o":"m 0 44 l 0 692 l 213 692 l 213 90 l 303 90 l 303 692 l 517 692 l 517 -206 l 378 -206 l 0 -206 l 0 -112 l 303 -112 l 303 -1 l 0 -1 l 0 44 z "},"z":{"ha":604,"x_min":0,"x_max":542,"o":"m 517 0 l 0 0 l 282 600 l 57 600 l 57 692 l 542 692 l 269 92 l 517 92 l 517 0 l 517 0 z "},"A":{"ha":642,"x_min":0,"x_max":579,"o":"m 210 1 l 0 1 l 0 869 l 210 869 l 210 558 l 369 558 l 369 950 l 0 950 l 0 1042 l 369 1042 l 369 1042 l 579 1042 l 579 1 l 369 1 l 369 468 l 210 468 l 210 1 z "},"B":{"ha":640,"x_min":0,"x_max":578,"o":"m 578 1042 l 578 576 l 578 532 l 578 44 l 578 1 l 210 1 l 0 1 l 0 869 l 210 869 l 210 628 l 368 628 l 368 950 l 0 950 l 0 1042 l 368 1042 l 578 1042 m 368 538 l 210 538 l 210 93 l 368 93 l 368 532 l 368 538 z "},"C":{"ha":619,"x_min":0,"x_max":557,"o":"m 557 1042 l 557 950 l 210 950 l 210 576 l 210 532 l 210 94 l 557 94 l 557 4 l 0 4 l 0 94 l 0 532 l 0 576 l 0 1042 l 210 1042 l 557 1042 z "},"D":{"ha":640,"x_min":0,"x_max":578,"o":"m 210 869 l 210 93 l 368 93 l 368 532 l 368 576 l 368 950 l 0 950 l 0 1042 l 368 1042 l 578 1042 l 578 576 l 578 532 l 578 44 l 578 1 l 210 1 l 0 1 l 0 869 l 210 869 z "},"E":{"ha":585,"x_min":0,"x_max":522,"o":"m 210 1042 l 522 1042 l 522 950 l 210 950 l 210 601 l 461 601 l 461 511 l 210 511 l 210 94 l 522 94 l 522 4 l 0 4 l 0 94 l 0 532 l 0 576 l 0 1042 l 210 1042 z "},"F":{"ha":585,"x_min":0,"x_max":522,"o":"m 210 1042 l 522 1042 l 522 950 l 210 950 l 210 601 l 461 601 l 461 511 l 210 511 l 210 3 l 0 3 l 0 532 l 0 576 l 0 1042 l 210 1042 z "},"G":{"ha":640,"x_min":0,"x_max":578,"o":"m 208 1042 l 578 1042 l 578 950 l 208 950 l 208 576 l 208 532 l 208 93 l 368 93 l 368 625 l 267 625 l 267 717 l 578 717 l 578 668 l 578 625 l 578 1 l 368 1 l 0 1 l 0 44 l 0 532 l 0 576 l 0 1042 l 208 1042 z "},"H":{"ha":663,"x_min":0,"x_max":600,"o":"m 600 1 l 390 1 l 390 468 l 210 468 l 210 1 l 0 1 l 0 1042 l 210 1042 l 210 558 l 390 558 l 390 1042 l 600 1042 l 600 1 z "},"I":{"ha":272,"x_min":0,"x_max":210,"o":"m 0 1042 l 210 1042 l 210 1 l 0 1 l 0 1042 z "},"J":{"ha":626,"x_min":0,"x_max":564,"o":"m 354 94 l 354 953 l 140 953 l 140 1044 l 564 1044 l 564 1042 l 564 953 l 564 94 l 564 89 l 564 3 l 0 3 l 0 94 l 354 94 z "},"K":{"ha":703,"x_min":0,"x_max":640,"o":"m 421 1 l 279 468 l 210 468 l 210 1 l 0 1 l 0 1042 l 210 1042 l 210 558 l 368 558 l 368 1042 l 578 1042 l 578 558 l 578 468 l 499 468 l 640 1 l 421 1 z "},"L":{"ha":621,"x_min":0,"x_max":558,"o":"m 1 1042 l 211 1042 l 211 576 l 211 532 l 211 94 l 558 94 l 558 4 l 0 4 l 0 94 l 1 94 l 1 532 l 1 576 l 1 1042 z "},"M":{"ha":988,"x_min":0,"x_max":925,"o":"m 210 1 l 0 1 l 0 869 l 210 869 l 210 1 m 325 950 l 0 950 l 0 1042 l 325 1042 l 354 1042 l 564 1042 l 715 1042 l 925 1042 l 925 1 l 715 1 l 715 950 l 564 950 l 564 1 l 354 1 l 354 950 l 325 950 z "},"N":{"ha":663,"x_min":0,"x_max":600,"o":"m 210 1 l 0 1 l 0 950 l 0 999 l 0 1042 l 390 1042 l 600 1042 l 600 1 l 390 1 l 390 950 l 210 950 l 210 1 z "},"O":{"ha":642,"x_min":0,"x_max":579,"o":"m 579 1 l 210 1 l 0 1 l 0 950 l 0 996 l 0 1042 l 369 1042 l 579 1042 l 579 44 l 579 1 m 369 950 l 210 950 l 210 93 l 369 93 l 369 950 z "},"P":{"ha":642,"x_min":0,"x_max":579,"o":"m 210 869 l 210 558 l 369 558 l 369 950 l 0 950 l 0 1042 l 369 1042 l 579 1042 l 579 558 l 579 468 l 210 468 l 210 1 l 0 1 l 0 869 l 210 869 z "},"Q":{"ha":640,"x_min":0,"x_max":578,"o":"m 394 -212 l 185 -212 l 185 1 l 0 1 l 0 950 l 0 996 l 0 1042 l 368 1042 l 578 1042 l 578 44 l 578 1 l 394 1 l 394 -212 m 368 950 l 210 950 l 210 93 l 368 93 l 368 950 z "},"R":{"ha":703,"x_min":0,"x_max":640,"o":"m 210 1 l 0 1 l 0 869 l 210 869 l 210 558 l 369 558 l 369 950 l 0 950 l 0 1042 l 369 1042 l 579 1042 l 579 558 l 579 468 l 499 468 l 640 1 l 421 1 l 281 468 l 210 468 l 210 1 z "},"S":{"ha":621,"x_min":0,"x_max":558,"o":"m 210 951 l 210 558 l 349 558 l 558 558 l 558 96 l 558 4 l 0 4 l 0 96 l 349 96 l 349 468 l 0 468 l 0 558 l 0 1043 l 210 1043 l 210 1042 l 558 1042 l 558 951 l 210 951 z "},"T":{"ha":675,"x_min":0,"x_max":613,"o":"m 201 3 l 201 950 l 0 950 l 0 1042 l 201 1042 l 411 1042 l 613 1042 l 613 950 l 411 950 l 411 3 l 201 3 z "},"U":{"ha":663,"x_min":0,"x_max":600,"o":"m 600 1 l 210 1 l 0 1 l 0 1042 l 210 1042 l 210 93 l 390 93 l 390 1042 l 600 1042 l 600 93 l 600 44 l 600 1 z "},"V":{"ha":663,"x_min":0,"x_max":600,"o":"m 600 1 l 96 1 l 0 1042 l 210 1042 l 297 93 l 600 93 l 600 1 m 600 168 l 390 168 l 390 1042 l 600 1042 l 600 168 z "},"W":{"ha":1056,"x_min":0,"x_max":993,"o":"m 600 168 l 390 168 l 390 1042 l 600 1042 l 600 168 m 600 1 l 393 1 l 96 1 l 0 1042 l 211 1042 l 299 93 l 393 93 l 600 93 l 694 93 l 782 1042 l 993 1042 l 897 1 l 600 1 z "},"X":{"ha":771,"x_min":0,"x_max":708,"o":"m 636 1042 l 429 608 l 708 0 l 476 1 l 311 363 l 138 1 l 38 1 l 261 469 l 0 1042 l 229 1042 l 379 717 l 535 1042 l 636 1042 z "},"Y":{"ha":628,"x_min":0,"x_max":565,"o":"m 356 94 l 356 346 l 21 346 l 0 346 l 0 1042 l 210 1042 l 210 436 l 356 436 l 356 1042 l 565 1042 l 565 94 l 565 89 l 565 3 l 1 3 l 1 94 l 356 94 z "},"Z":{"ha":676,"x_min":0,"x_max":614,"o":"m 0 4 l 368 950 l 63 950 l 63 1042 l 614 1042 l 264 94 l 585 94 l 585 4 l 0 4 l 0 4 z "},"d":{"ha":579,"x_min":0,"x_max":517,"o":"m 303 692 l 303 1042 l 517 1042 l 517 164 l 303 164 l 303 600 l 213 600 l 213 90 l 517 90 l 517 -3 l 0 -1 l 0 692 l 303 692 z "},"!":{"ha":222,"x_min":0,"x_max":160,"o":"m 0 1039 l 160 1039 l 160 156 l 0 156 l 0 1039 m 160 -3 l 0 -3 l 0 107 l 160 107 l 160 -3 z "},"@":{"ha":881,"x_min":0,"x_max":818,"o":"m 818 -33 l 160 -33 l 0 -33 l 0 694 l 0 729 l 0 764 l 657 764 l 818 764 l 818 -1 l 818 -33 m 657 694 l 160 694 l 160 36 l 657 36 l 657 694 m 225 103 l 225 474 l 226 474 l 226 490 l 436 490 l 436 557 l 226 557 l 226 628 l 436 628 l 597 628 l 597 103 l 564 103 l 226 103 l 225 103 m 386 174 l 436 174 l 436 421 l 386 421 l 386 174 z "},"#":{"ha":679,"x_min":0,"x_max":617,"o":"m 79 -42 l 79 226 l 0 226 l 0 307 l 79 307 l 79 528 l 0 528 l 0 608 l 79 608 l 79 878 l 249 878 l 249 608 l 356 608 l 356 878 l 526 878 l 526 608 l 617 608 l 617 528 l 526 528 l 526 307 l 617 307 l 617 226 l 526 226 l 526 -42 l 356 -42 l 356 226 l 249 226 l 249 -42 l 79 -42 m 249 307 l 356 307 l 356 528 l 249 528 l 249 307 z "},"$":{"ha":511,"x_min":0,"x_max":449,"o":"m 279 143 l 279 447 l 0 447 l 0 522 l 0 917 l 156 917 l 156 1042 l 324 1042 l 324 917 l 449 917 l 449 842 l 169 842 l 169 522 l 279 522 l 449 522 l 449 143 l 449 69 l 324 69 l 324 -58 l 156 -58 l 156 69 l 0 69 l 0 143 l 279 143 z "},"%":{"ha":728,"x_min":0,"x_max":665,"o":"m 665 1042 l 213 1 l 0 1 l 454 1042 l 665 1042 m 582 -1 l 393 -1 l 393 156 l 582 156 l 582 -1 m 106 1042 l 294 1042 l 294 886 l 106 886 l 106 1042 z "},"^":{"ha":442,"x_min":0,"x_max":379,"o":"m 0 814 l 119 1040 l 263 1040 l 379 814 l 275 744 l 189 907 l 104 744 l 0 814 z "},"&":{"ha":611,"x_min":0,"x_max":549,"o":"m 463 461 l 463 78 l 463 0 l 1 0 l 1 36 l 0 36 l 0 457 l 0 494 l 0 896 l 181 896 l 408 896 l 408 818 l 181 818 l 181 540 l 281 540 l 281 674 l 463 674 l 463 540 l 549 540 l 549 461 l 463 461 m 281 461 l 181 461 l 181 457 l 181 78 l 281 78 l 281 461 z "},"*":{"ha":390,"x_min":0,"x_max":328,"o":"m 35 776 l 82 853 l 0 885 l 40 988 l 111 961 l 111 1043 l 225 1043 l 225 964 l 286 988 l 328 885 l 251 856 l 299 776 l 201 719 l 167 776 l 132 719 l 35 776 z "},"(":{"ha":344,"x_min":0,"x_max":282,"o":"m 13 832 l 32 949 l 113 949 l 282 949 l 282 879 l 183 879 l 171 811 l 161 685 l 161 133 l 171 42 l 188 -29 l 282 -29 l 282 -99 l 39 -99 l 32 -71 l 13 14 l 0 125 l 1 694 l 13 832 z "},")":{"ha":344,"x_min":0,"x_max":282,"o":"m 169 -99 l 0 -99 l 0 -29 l 100 -29 l 111 39 l 121 165 l 121 717 l 111 808 l 94 879 l 0 879 l 0 949 l 243 949 l 250 921 l 271 835 l 282 725 l 282 156 l 271 18 l 251 -99 l 169 -99 z "},"+":{"ha":461,"x_min":0,"x_max":399,"o":"m 399 378 l 281 378 l 281 229 l 119 229 l 119 378 l 0 378 l 0 447 l 119 447 l 119 597 l 281 597 l 281 447 l 399 447 l 399 378 z "},"-":{"ha":408,"x_min":0,"x_max":346,"o":"m 346 378 l 0 378 l 0 447 l 346 447 l 346 378 z "},"=":{"ha":408,"x_min":0,"x_max":346,"o":"m 346 438 l 0 438 l 0 507 l 346 507 l 346 438 m 346 325 l 0 325 l 0 394 l 346 394 l 346 325 z "},"[":{"ha":311,"x_min":0,"x_max":249,"o":"m 249 -97 l 0 -97 l 0 -28 l 0 876 l 0 911 l 0 947 l 249 947 l 249 876 l 160 876 l 160 -28 l 249 -28 l 249 -97 z "},"]":{"ha":313,"x_min":0,"x_max":250,"o":"m 250 -97 l 0 -97 l 0 -28 l 89 -28 l 89 879 l 0 879 l 0 950 l 250 950 l 250 879 l 250 -28 l 250 -60 l 250 -97 z "},"\\":{"ha":615,"x_min":0,"x_max":553,"o":"m 553 -1 l 390 -3 l 0 794 l 163 794 l 553 -1 z "},"{":{"ha":422,"x_min":0,"x_max":360,"o":"m 110 947 l 360 947 l 360 876 l 271 876 l 271 521 l 194 407 l 271 297 l 271 -28 l 360 -28 l 360 -97 l 110 -97 l 110 -28 l 110 247 l 0 406 l 110 569 l 110 876 l 110 911 l 110 947 z "},"}":{"ha":422,"x_min":0,"x_max":360,"o":"m 360 406 l 250 247 l 250 -28 l 250 -97 l 0 -97 l 0 -28 l 89 -28 l 89 297 l 165 407 l 89 521 l 89 876 l 0 876 l 0 947 l 250 947 l 250 911 l 250 876 l 250 569 l 360 406 z "},"|":{"ha":222,"x_min":0,"x_max":160,"o":"m 160 -161 l 0 -161 l 0 1042 l 160 1042 l 160 -161 z "},"_":{"ha":461,"x_min":0,"x_max":399,"o":"m 399 -79 l 0 -79 l 0 -10 l 399 -10 l 399 -79 z "},":":{"ha":222,"x_min":0,"x_max":160,"o":"m 160 447 l 0 447 l 0 557 l 160 557 l 160 447 m 0 108 l 160 108 l 160 -1 l 0 -1 l 0 108 z "},";":{"ha":265,"x_min":0,"x_max":203,"o":"m 42 447 l 42 557 l 203 557 l 203 447 l 42 447 m 42 -11 l 42 108 l 203 108 l 203 -68 l 125 -165 l 0 -64 l 42 -11 z "},"<":{"ha":751,"x_min":0,"x_max":689,"o":"m 689 481 l 258 307 l 689 133 l 689 -19 l 0 257 l 0 431 l 689 707 l 689 481 z "},">":{"ha":753,"x_min":0,"x_max":690,"o":"m 0 206 l 432 379 l 0 553 l 1 707 l 689 429 l 690 256 l 0 -19 l 0 206 z "},"?":{"ha":574,"x_min":0,"x_max":511,"o":"m 99 107 l 278 107 l 278 -15 l 99 -15 l 99 107 m 511 1042 l 511 582 l 511 504 l 275 504 l 275 161 l 96 161 l 96 582 l 275 582 l 332 582 l 332 965 l 0 965 l 0 1042 l 332 1042 l 511 1042 z "},",":{"ha":265,"x_min":0,"x_max":203,"o":"m 43 -8 l 43 113 l 203 113 l 203 -65 l 126 -161 l 0 -60 l 43 -8 z "},"'":{"ha":300,"x_min":0,"x_max":238,"o":"m 111 717 l 0 767 l 126 1049 l 238 999 l 111 717 z "},"\"":{"ha":468,"x_min":0,"x_max":406,"o":"m 238 999 l 111 717 l 0 767 l 126 1049 l 238 999 m 406 999 l 279 717 l 168 767 l 294 1049 l 406 999 z "},"`":{"ha":300,"x_min":0,"x_max":238,"o":"m 238 767 l 126 717 l 0 999 l 110 1049 l 238 767 z "},"×":{"ha":540,"x_min":0,"x_max":478,"o":"m 126 185 l 36 185 l 160 340 l 0 553 l 203 553 l 263 471 l 329 553 l 418 553 l 306 413 l 478 185 l 276 185 l 203 282 l 126 185 z "},"÷":{"ha":461,"x_min":0,"x_max":399,"o":"m 399 333 l 0 333 l 0 403 l 399 403 l 399 333 m 119 576 l 279 576 l 279 467 l 119 467 l 119 576 m 279 144 l 119 144 l 119 254 l 279 254 l 279 144 z "},"©":{"ha":711,"x_min":0,"x_max":649,"o":"m 649 329 l 128 329 l 0 329 l 0 906 l 0 933 l 0 961 l 521 961 l 649 961 l 649 356 l 649 329 m 521 906 l 128 906 l 128 385 l 521 385 l 521 906 m 172 438 l 172 853 l 199 853 l 467 853 l 467 797 l 300 797 l 300 493 l 467 493 l 467 438 l 256 438 l 172 438 z "},"€":{"ha":653,"x_min":0,"x_max":590,"o":"m 254 1040 l 590 1040 l 590 935 l 254 935 l 254 688 l 571 688 l 571 583 l 254 583 l 254 582 l 254 531 l 254 469 l 571 469 l 571 364 l 254 364 l 254 106 l 590 106 l 590 0 l 50 0 l 50 106 l 51 106 l 51 364 l 0 364 l 0 469 l 51 469 l 51 531 l 51 582 l 51 583 l 0 583 l 0 688 l 51 688 l 51 1040 l 254 1040 z "},"~":{"ha":424,"x_min":0,"x_max":361,"o":"m 115 376 q 76 342 92 374 l 0 383 q 101 461 39 453 q 159 457 131 467 q 211 425 188 447 q 247 411 228 408 q 293 442 272 414 l 361 390 q 305 341 333 354 q 256 325 276 328 l 243 325 q 153 363 192 325 q 115 376 133 381 z "},"±":{"ha":461,"x_min":0,"x_max":399,"o":"m 399 58 l 0 58 l 0 128 l 399 128 l 399 58 m 118 333 l 0 333 l 0 403 l 118 403 l 118 551 l 279 551 l 279 403 l 399 403 l 399 333 l 279 333 l 279 183 l 118 183 l 118 333 z "},"ﬁ":{"ha":581,"x_min":0,"x_max":518,"o":"m 308 682 l 518 682 l 518 -1 l 308 -1 l 308 590 l 210 590 l 210 0 l 0 0 l 0 1040 l 44 1040 l 331 1040 l 331 950 l 210 950 l 210 682 l 308 682 l 308 682 z "},"ﬂ":{"ha":693,"x_min":0,"x_max":631,"o":"m 564 90 l 631 90 l 631 -1 l 383 -1 l 383 -1 l 353 -1 l 353 950 l 210 950 l 210 682 l 315 682 l 315 590 l 210 590 l 210 0 l 0 0 l 0 1040 l 43 1040 l 43 1040 l 378 1040 l 378 1040 l 564 1040 l 564 90 z "},"ﬃ":{"ha":929,"x_min":0,"x_max":867,"o":"m 657 867 l 867 867 l 867 724 l 657 724 l 657 867 m 867 682 l 867 -1 l 657 -1 l 657 590 l 558 590 l 558 0 l 349 0 l 349 858 l 210 858 l 210 682 l 317 682 l 317 590 l 210 590 l 210 0 l 0 0 l 0 950 l 44 950 l 349 950 l 349 1040 l 392 1040 l 678 1040 l 678 950 l 558 950 l 558 682 l 657 682 l 867 682 z "},"ﬄ":{"ha":1054,"x_min":0,"x_max":992,"o":"m 925 90 l 992 90 l 992 -1 l 744 -1 l 714 -1 l 714 950 l 557 950 l 557 682 l 663 682 l 663 590 l 557 590 l 557 0 l 347 0 l 347 858 l 210 858 l 210 682 l 315 682 l 315 590 l 210 590 l 210 0 l 0 0 l 0 950 l 43 950 l 347 950 l 347 1040 l 390 1040 l 763 1040 l 925 1040 l 925 90 z "},"ﬆ":{"ha":899,"x_min":0,"x_max":836,"o":"m 769 90 l 836 90 l 836 -1 l 589 -1 l 560 -1 l 560 950 l 322 950 l 467 682 l 468 682 l 468 592 l 354 592 l 354 590 l 353 592 l 211 592 l 211 374 l 468 374 l 468 283 l 467 283 l 467 0 l 424 0 l 0 0 l 0 92 l 257 92 l 257 283 l 0 283 l 0 374 l 1 374 l 1 682 l 44 682 l 306 682 l 115 1039 l 560 1040 l 769 1040 l 769 90 z "},"/":{"ha":728,"x_min":0,"x_max":665,"o":"m 454 1042 l 665 1042 l 213 1 l 0 1 l 454 1042 l 454 1042 z "},".":{"ha":222,"x_min":0,"x_max":160,"o":"m 0 -1 l 0 108 l 160 108 l 160 -1 l 0 -1 l 0 -1 z "},"ÿ":{"ha":579,"x_min":0,"x_max":517,"o":"m 236 874 l 236 783 l 75 783 l 75 874 l 236 874 m 440 874 l 440 783 l 279 783 l 279 874 l 440 874 m 0 44 l 0 692 l 213 692 l 213 90 l 303 90 l 303 692 l 517 692 l 517 -206 l 378 -206 l 0 -206 l 0 -112 l 303 -112 l 303 -1 l 0 -1 l 0 44 z "},"ü":{"ha":565,"x_min":0,"x_max":503,"o":"m 236 874 l 236 783 l 75 783 l 75 874 l 236 874 m 440 874 l 440 783 l 279 783 l 279 874 l 440 874 m 0 -1 l 0 692 l 213 692 l 213 90 l 289 90 l 289 690 l 501 690 l 503 -1 l 43 -1 l 0 -1 z "},"ö":{"ha":558,"x_min":0,"x_max":496,"o":"m 236 874 l 236 783 l 75 783 l 75 874 l 236 874 m 440 874 l 440 783 l 279 783 l 279 874 l 440 874 m 493 692 l 496 692 l 496 -1 l 493 -1 l 493 -3 l 0 -1 l 0 692 l 493 692 m 214 90 l 282 90 l 282 600 l 214 600 l 214 90 z "},"ë":{"ha":556,"x_min":0,"x_max":493,"o":"m 236 874 l 236 783 l 75 783 l 75 874 l 236 874 m 440 874 l 440 783 l 279 783 l 279 874 l 440 874 m 0 -1 l 0 692 l 44 692 l 493 692 l 493 239 l 493 215 l 213 215 l 213 90 l 493 90 l 493 -1 l 213 -1 l 0 -1 m 213 308 l 279 308 l 279 600 l 213 600 l 213 308 z "},"ä":{"ha":556,"x_min":0,"x_max":493,"o":"m 236 874 l 236 783 l 75 783 l 75 874 l 236 874 m 440 874 l 440 783 l 279 783 l 279 874 l 440 874 m 0 -1 l 0 -1 l 0 489 l 0 489 l 0 511 l 279 511 l 279 600 l 0 600 l 0 692 l 279 692 l 279 692 l 493 692 l 493 -1 l 0 -3 l 0 -1 m 214 90 l 279 90 l 279 418 l 214 418 l 214 90 z "},"Ü":{"ha":663,"x_min":0,"x_max":600,"o":"m 282 1179 l 282 1089 l 121 1089 l 121 1179 l 282 1179 m 486 1179 l 486 1089 l 325 1089 l 325 1179 l 486 1179 m 600 1 l 210 1 l 0 1 l 0 1042 l 210 1042 l 210 93 l 390 93 l 390 1042 l 600 1042 l 600 93 l 600 44 l 600 1 z "},"Ö":{"ha":642,"x_min":0,"x_max":579,"o":"m 282 1179 l 282 1089 l 121 1089 l 121 1179 l 282 1179 m 486 1179 l 486 1089 l 325 1089 l 325 1179 l 486 1179 m 579 1 l 210 1 l 0 1 l 0 950 l 0 996 l 0 1042 l 369 1042 l 579 1042 l 579 44 l 579 1 m 369 950 l 210 950 l 210 93 l 369 93 l 369 950 z "},"Ï":{"ha":272,"x_min":-71,"x_max":294,"o":"m 90 1179 l 90 1089 l -71 1089 l -71 1179 l 90 1179 m 294 1179 l 294 1089 l 133 1089 l 133 1179 l 294 1179 m 0 1042 l 210 1042 l 210 1 l 0 1 l 0 1042 z "},"Ë":{"ha":585,"x_min":0,"x_max":522,"o":"m 268 1179 l 268 1089 l 107 1089 l 107 1179 l 268 1179 m 472 1179 l 472 1089 l 311 1089 l 311 1179 l 472 1179 m 210 1042 l 522 1042 l 522 950 l 210 950 l 210 601 l 461 601 l 461 511 l 210 511 l 210 94 l 522 94 l 522 4 l 0 4 l 0 94 l 0 532 l 0 576 l 0 1042 l 210 1042 z "},"Ä":{"ha":642,"x_min":0,"x_max":579,"o":"m 271 1179 l 271 1089 l 110 1089 l 110 1179 l 271 1179 m 475 1179 l 475 1089 l 314 1089 l 314 1179 l 475 1179 m 210 1 l 0 1 l 0 869 l 210 869 l 210 558 l 369 558 l 369 950 l 0 950 l 0 1042 l 369 1042 l 369 1042 l 579 1042 l 579 1 l 369 1 l 369 468 l 210 468 l 210 1 z "},"Ÿ":{"ha":628,"x_min":0,"x_max":565,"o":"m 264 1179 l 264 1089 l 103 1089 l 103 1179 l 264 1179 m 468 1179 l 468 1089 l 307 1089 l 307 1179 l 468 1179 m 356 94 l 356 346 l 21 346 l 0 346 l 0 1042 l 210 1042 l 210 436 l 356 436 l 356 1042 l 565 1042 l 565 94 l 565 89 l 565 3 l 1 3 l 1 94 l 356 94 z "},"ý":{"ha":579,"x_min":0,"x_max":517,"o":"m 358 872 l 267 739 l 200 785 l 292 918 l 358 872 m 0 44 l 0 692 l 213 692 l 213 90 l 303 90 l 303 692 l 517 692 l 517 -206 l 378 -206 l 0 -206 l 0 -112 l 303 -112 l 303 -1 l 0 -1 l 0 44 z "},"ú":{"ha":565,"x_min":0,"x_max":503,"o":"m 358 872 l 267 739 l 200 785 l 292 918 l 358 872 m 0 -1 l 0 692 l 213 692 l 213 90 l 289 90 l 289 690 l 501 690 l 503 -1 l 43 -1 l 0 -1 z "},"ó":{"ha":558,"x_min":0,"x_max":496,"o":"m 358 872 l 267 739 l 200 785 l 292 918 l 358 872 m 493 692 l 496 692 l 496 -1 l 493 -1 l 493 -3 l 0 -1 l 0 692 l 493 692 m 214 90 l 282 90 l 282 600 l 214 600 l 214 90 z "},"é":{"ha":556,"x_min":0,"x_max":493,"o":"m 358 872 l 267 739 l 200 785 l 292 918 l 358 872 m 0 -1 l 0 692 l 44 692 l 493 692 l 493 239 l 493 215 l 213 215 l 213 90 l 493 90 l 493 -1 l 213 -1 l 0 -1 m 213 308 l 279 308 l 279 600 l 213 600 l 213 308 z "},"á":{"ha":556,"x_min":0,"x_max":493,"o":"m 358 872 l 267 739 l 200 785 l 292 918 l 358 872 m 0 -1 l 0 -1 l 0 489 l 0 489 l 0 511 l 279 511 l 279 600 l 0 600 l 0 692 l 279 692 l 279 692 l 493 692 l 493 -1 l 0 -3 l 0 -1 m 214 90 l 279 90 l 279 418 l 214 418 l 214 90 z "},"Ý":{"ha":628,"x_min":0,"x_max":565,"o":"m 371 1211 l 279 1078 l 213 1124 l 304 1257 l 371 1211 m 356 94 l 356 346 l 21 346 l 0 346 l 0 1042 l 210 1042 l 210 436 l 356 436 l 356 1042 l 565 1042 l 565 94 l 565 89 l 565 3 l 1 3 l 1 94 l 356 94 z "},"Ú":{"ha":663,"x_min":0,"x_max":600,"o":"m 389 1211 l 297 1078 l 231 1124 l 322 1257 l 389 1211 m 600 1 l 210 1 l 0 1 l 0 1042 l 210 1042 l 210 93 l 390 93 l 390 1042 l 600 1042 l 600 93 l 600 44 l 600 1 z "},"Ó":{"ha":642,"x_min":0,"x_max":579,"o":"m 389 1211 l 297 1078 l 231 1124 l 322 1257 l 389 1211 m 579 1 l 210 1 l 0 1 l 0 950 l 0 996 l 0 1042 l 369 1042 l 579 1042 l 579 44 l 579 1 m 369 950 l 210 950 l 210 93 l 369 93 l 369 950 z "},"Í":{"ha":272,"x_min":0,"x_max":210,"o":"m 208 1211 l 117 1078 l 50 1124 l 142 1257 l 208 1211 m 0 1042 l 210 1042 l 210 1 l 0 1 l 0 1042 z "},"É":{"ha":585,"x_min":0,"x_max":522,"o":"m 389 1211 l 297 1078 l 231 1124 l 322 1257 l 389 1211 m 210 1042 l 522 1042 l 522 950 l 210 950 l 210 601 l 461 601 l 461 511 l 210 511 l 210 94 l 522 94 l 522 4 l 0 4 l 0 94 l 0 532 l 0 576 l 0 1042 l 210 1042 z "},"Á":{"ha":642,"x_min":0,"x_max":579,"o":"m 389 1211 l 297 1078 l 231 1124 l 322 1257 l 389 1211 m 210 1 l 0 1 l 0 869 l 210 869 l 210 558 l 369 558 l 369 950 l 0 950 l 0 1042 l 369 1042 l 369 1042 l 579 1042 l 579 1 l 369 1 l 369 468 l 210 468 l 210 1 z "},"À":{"ha":642,"x_min":0,"x_max":579,"o":"m 357 1133 l 292 1088 l 200 1221 l 267 1267 l 357 1133 m 210 1 l 0 1 l 0 869 l 210 869 l 210 558 l 369 558 l 369 950 l 0 950 l 0 1042 l 369 1042 l 369 1042 l 579 1042 l 579 1 l 369 1 l 369 468 l 210 468 l 210 1 z "},"È":{"ha":585,"x_min":0,"x_max":522,"o":"m 357 1133 l 292 1088 l 200 1221 l 267 1267 l 357 1133 m 210 1042 l 522 1042 l 522 950 l 210 950 l 210 601 l 461 601 l 461 511 l 210 511 l 210 94 l 522 94 l 522 4 l 0 4 l 0 94 l 0 532 l 0 576 l 0 1042 l 210 1042 z "},"Ì":{"ha":272,"x_min":0,"x_max":210,"o":"m 183 1133 l 118 1088 l 26 1221 l 93 1267 l 183 1133 m 0 1042 l 210 1042 l 210 1 l 0 1 l 0 1042 z "},"Ò":{"ha":642,"x_min":0,"x_max":579,"o":"m 357 1133 l 292 1088 l 200 1221 l 267 1267 l 357 1133 m 579 1 l 210 1 l 0 1 l 0 950 l 0 996 l 0 1042 l 369 1042 l 579 1042 l 579 44 l 579 1 m 369 950 l 210 950 l 210 93 l 369 93 l 369 950 z "},"Ù":{"ha":663,"x_min":0,"x_max":600,"o":"m 357 1133 l 292 1088 l 200 1221 l 267 1267 l 357 1133 m 600 1 l 210 1 l 0 1 l 0 1042 l 210 1042 l 210 93 l 390 93 l 390 1042 l 600 1042 l 600 93 l 600 44 l 600 1 z "},"à":{"ha":556,"x_min":0,"x_max":493,"o":"m 313 779 l 247 733 l 156 867 l 222 913 l 313 779 m 0 -1 l 0 -1 l 0 489 l 0 489 l 0 511 l 279 511 l 279 600 l 0 600 l 0 692 l 279 692 l 279 692 l 493 692 l 493 -1 l 0 -3 l 0 -1 m 214 90 l 279 90 l 279 418 l 214 418 l 214 90 z "},"è":{"ha":556,"x_min":0,"x_max":493,"o":"m 313 779 l 247 733 l 156 867 l 222 913 l 313 779 m 0 -1 l 0 692 l 44 692 l 493 692 l 493 239 l 493 215 l 213 215 l 213 90 l 493 90 l 493 -1 l 213 -1 l 0 -1 m 213 308 l 279 308 l 279 600 l 213 600 l 213 308 z "},"ì":{"ha":276,"x_min":0,"x_max":214,"o":"m 178 779 l 113 733 l 21 867 l 88 913 l 178 779 m 0 692 l 214 692 l 214 -1 l 0 -1 l 0 692 z "},"ò":{"ha":558,"x_min":0,"x_max":496,"o":"m 313 779 l 247 733 l 156 867 l 222 913 l 313 779 m 493 692 l 496 692 l 496 -1 l 493 -1 l 493 -3 l 0 -1 l 0 692 l 493 692 m 214 90 l 282 90 l 282 600 l 214 600 l 214 90 z "},"ù":{"ha":565,"x_min":0,"x_max":503,"o":"m 313 779 l 247 733 l 156 867 l 222 913 l 313 779 m 0 -1 l 0 692 l 213 692 l 213 90 l 289 90 l 289 690 l 501 690 l 503 -1 l 43 -1 l 0 -1 z "},"â":{"ha":556,"x_min":0,"x_max":493,"o":"m 239 824 l 181 739 l 115 785 l 206 918 l 272 918 l 363 785 l 297 739 l 239 824 m 0 -1 l 0 -1 l 0 489 l 0 489 l 0 511 l 279 511 l 279 600 l 0 600 l 0 692 l 279 692 l 279 692 l 493 692 l 493 -1 l 0 -3 l 0 -1 m 214 90 l 279 90 l 279 418 l 214 418 l 214 90 z "},"Û":{"ha":663,"x_min":0,"x_max":600,"o":"m 308 1165 l 250 1081 l 185 1126 l 275 1260 l 342 1260 l 432 1126 l 367 1081 l 308 1165 m 600 1 l 210 1 l 0 1 l 0 1042 l 210 1042 l 210 93 l 390 93 l 390 1042 l 600 1042 l 600 93 l 600 44 l 600 1 z "},"Ô":{"ha":642,"x_min":0,"x_max":579,"o":"m 300 1171 l 242 1086 l 176 1132 l 267 1265 l 333 1265 l 424 1132 l 358 1086 l 300 1171 m 579 1 l 210 1 l 0 1 l 0 950 l 0 996 l 0 1042 l 369 1042 l 579 1042 l 579 44 l 579 1 m 369 950 l 210 950 l 210 93 l 369 93 l 369 950 z "},"Î":{"ha":272,"x_min":-17,"x_max":231,"o":"m 107 1168 l 49 1083 l -17 1129 l 74 1263 l 140 1263 l 231 1129 l 165 1083 l 107 1168 m 0 1042 l 210 1042 l 210 1 l 0 1 l 0 1042 z "},"Ê":{"ha":585,"x_min":0,"x_max":522,"o":"m 301 1168 l 243 1083 l 178 1129 l 268 1263 l 335 1263 l 425 1129 l 360 1083 l 301 1168 m 210 1042 l 522 1042 l 522 950 l 210 950 l 210 601 l 461 601 l 461 511 l 210 511 l 210 94 l 522 94 l 522 4 l 0 4 l 0 94 l 0 532 l 0 576 l 0 1042 l 210 1042 z "},"Â":{"ha":642,"x_min":0,"x_max":579,"o":"m 292 1167 l 233 1082 l 168 1128 l 258 1261 l 325 1261 l 415 1128 l 350 1082 l 292 1167 m 210 1 l 0 1 l 0 869 l 210 869 l 210 558 l 369 558 l 369 950 l 0 950 l 0 1042 l 369 1042 l 369 1042 l 579 1042 l 579 1 l 369 1 l 369 468 l 210 468 l 210 1 z "},"ê":{"ha":556,"x_min":0,"x_max":493,"o":"m 239 824 l 181 739 l 115 785 l 206 918 l 272 918 l 363 785 l 297 739 l 239 824 m 0 -1 l 0 692 l 44 692 l 493 692 l 493 239 l 493 215 l 213 215 l 213 90 l 493 90 l 493 -1 l 213 -1 l 0 -1 m 213 308 l 279 308 l 279 600 l 213 600 l 213 308 z "},"ô":{"ha":558,"x_min":0,"x_max":496,"o":"m 239 824 l 181 739 l 115 785 l 206 918 l 272 918 l 363 785 l 297 739 l 239 824 m 493 692 l 496 692 l 496 -1 l 493 -1 l 493 -3 l 0 -1 l 0 692 l 493 692 m 214 90 l 282 90 l 282 600 l 214 600 l 214 90 z "},"û":{"ha":565,"x_min":0,"x_max":503,"o":"m 239 824 l 181 739 l 115 785 l 206 918 l 272 918 l 363 785 l 297 739 l 239 824 m 0 -1 l 0 692 l 213 692 l 213 90 l 289 90 l 289 690 l 501 690 l 503 -1 l 43 -1 l 0 -1 z "},"å":{"ha":556,"x_min":0,"x_max":493,"o":"m 246 735 q 165 768 199 735 q 132 849 132 801 q 165 931 132 897 q 246 964 199 964 q 328 931 294 964 q 361 849 361 897 q 328 768 361 801 q 246 735 294 735 m 246 883 q 222 874 232 883 q 213 849 213 864 q 222 825 213 835 q 246 815 232 815 q 271 825 261 815 q 281 849 281 835 q 271 874 281 864 q 246 883 261 883 m 0 -1 l 0 489 l 0 511 l 279 511 l 279 600 l 0 600 l 0 692 l 279 692 l 493 692 l 493 -1 l 0 -3 l 0 -1 m 214 90 l 279 90 l 279 418 l 214 418 l 214 90 z "},"Å":{"ha":642,"x_min":0,"x_max":579,"o":"m 293 1069 q 213 1103 246 1069 q 179 1183 179 1136 q 213 1265 179 1232 q 293 1299 246 1299 q 375 1265 342 1299 q 408 1183 408 1232 q 375 1103 408 1136 q 293 1069 342 1069 m 293 1218 q 269 1208 279 1218 q 260 1183 260 1199 q 269 1160 260 1169 q 293 1150 279 1150 q 318 1160 308 1150 q 328 1183 328 1169 q 318 1208 328 1199 q 293 1218 308 1218 m 210 1 l 0 1 l 0 869 l 210 869 l 210 558 l 369 558 l 369 950 l 0 950 l 0 1042 l 369 1042 l 579 1042 l 579 1 l 369 1 l 369 468 l 210 468 l 210 1 z "},"Ð":{"ha":721,"x_min":0,"x_max":658,"o":"m 346 514 l 290 514 l 290 93 l 449 93 l 449 950 l 81 950 l 81 1042 l 658 1042 l 658 1 l 81 1 l 81 514 l 0 514 l 0 583 l 81 583 l 81 869 l 290 869 l 290 583 l 346 583 l 346 514 z "},"ã":{"ha":556,"x_min":0,"x_max":493,"o":"m 294 760 q 215 792 250 760 q 192 803 204 803 q 165 778 176 800 l 90 818 q 128 865 106 847 q 178 886 150 882 q 274 854 231 894 q 283 848 276 851 q 297 844 289 844 q 329 867 314 846 l 397 815 q 356 777 379 792 q 306 760 332 763 l 294 760 m 0 -1 l 0 489 l 0 511 l 279 511 l 279 600 l 0 600 l 0 692 l 279 692 l 493 692 l 493 -1 l 0 -3 l 0 -1 m 214 90 l 279 90 l 279 418 l 214 418 l 214 90 z "},"Ã":{"ha":642,"x_min":0,"x_max":579,"o":"m 375 1079 q 296 1111 331 1079 q 272 1122 285 1122 q 246 1097 257 1119 l 171 1138 q 208 1184 186 1167 q 258 1206 231 1201 q 354 1174 311 1214 q 363 1167 357 1171 q 378 1164 369 1164 q 410 1186 394 1165 l 478 1135 q 436 1097 460 1111 q 386 1079 413 1082 l 375 1079 m 210 1 l 0 1 l 0 869 l 210 869 l 210 558 l 369 558 l 369 950 l 0 950 l 0 1042 l 369 1042 l 579 1042 l 579 1 l 369 1 l 369 468 l 210 468 l 210 1 z "},"Ñ":{"ha":663,"x_min":0,"x_max":600,"o":"m 381 1088 q 301 1119 336 1088 q 278 1131 290 1131 q 251 1106 263 1128 l 176 1146 q 214 1192 192 1175 q 264 1214 236 1210 q 360 1182 317 1222 q 369 1176 363 1179 q 383 1172 375 1172 q 415 1194 400 1174 l 483 1143 q 442 1105 465 1119 q 392 1088 418 1090 l 381 1088 m 210 1 l 0 1 l 0 950 l 0 999 l 0 1042 l 390 1042 l 600 1042 l 600 1 l 390 1 l 390 950 l 210 950 l 210 1 z "},"Õ":{"ha":642,"x_min":0,"x_max":579,"o":"m 371 1086 q 292 1118 326 1086 q 268 1129 281 1129 q 242 1104 253 1126 l 167 1144 q 204 1191 182 1174 q 254 1213 226 1208 q 350 1181 307 1221 q 359 1174 353 1178 q 374 1171 365 1171 q 406 1193 390 1172 l 474 1142 q 432 1103 456 1118 q 382 1086 408 1089 l 371 1086 m 579 1 l 210 1 l 0 1 l 0 950 l 0 996 l 0 1042 l 369 1042 l 579 1042 l 579 44 l 579 1 m 369 950 l 210 950 l 210 93 l 369 93 l 369 950 z "},"ñ":{"ha":565,"x_min":0,"x_max":503,"o":"m 294 760 q 215 792 250 760 q 192 803 204 803 q 165 778 176 800 l 90 818 q 128 865 106 847 q 178 886 150 882 q 274 854 231 894 q 283 848 276 851 q 297 844 289 844 q 329 867 314 846 l 397 815 q 356 777 379 792 q 306 760 332 763 l 294 760 m 0 522 l 214 522 l 214 0 l 0 0 l 0 522 m 503 692 l 503 -1 l 289 -1 l 289 600 l 0 600 l 0 692 l 503 692 z "},"õ":{"ha":558,"x_min":0,"x_max":496,"o":"m 311 760 q 232 792 267 760 q 208 803 221 803 q 182 778 193 800 l 107 818 q 144 865 122 847 q 194 886 167 882 q 290 854 247 894 q 299 848 293 851 q 314 844 306 844 q 346 867 331 846 l 414 815 q 372 777 396 792 q 322 760 349 763 l 311 760 m 493 692 l 496 692 l 496 -1 l 493 -1 l 493 -3 l 0 -1 l 0 692 l 493 692 m 214 90 l 282 90 l 282 600 l 214 600 l 214 90 z "},"¿":{"ha":574,"x_min":0,"x_max":511,"o":"m 413 585 l 233 585 l 233 707 l 413 707 l 413 585 m 0 -350 l 0 110 l 0 188 l 236 188 l 236 531 l 415 531 l 415 110 l 236 110 l 179 110 l 179 -274 l 511 -274 l 511 -350 l 179 -350 l 0 -350 z "},"æ":{"ha":835,"x_min":0,"x_max":772,"o":"m 0 511 l 279 511 l 279 600 l 0 600 l 0 692 l 772 692 l 772 215 l 493 215 l 493 90 l 772 90 l 772 -1 l 493 -1 l 0 -3 l 0 511 m 214 90 l 279 90 l 279 418 l 214 418 l 214 90 m 493 600 l 493 308 l 558 308 l 558 600 l 493 600 z "},"Æ":{"ha":953,"x_min":0,"x_max":890,"o":"m 210 1 l 0 1 l 0 869 l 210 869 l 210 558 l 368 558 l 368 950 l 0 950 l 0 1042 l 890 1042 l 890 950 l 579 950 l 579 601 l 829 601 l 829 511 l 579 511 l 579 94 l 890 94 l 890 4 l 579 4 l 579 1 l 369 1 l 369 4 l 368 4 l 368 468 l 210 468 l 210 1 z "},"Œ":{"ha":953,"x_min":0,"x_max":890,"o":"m 890 1042 l 890 950 l 579 950 l 579 601 l 829 601 l 829 511 l 579 511 l 579 94 l 890 94 l 890 4 l 579 4 l 579 1 l 0 1 l 0 1042 l 890 1042 m 210 93 l 368 93 l 368 950 l 210 950 l 210 93 z "},"œ":{"ha":838,"x_min":0,"x_max":775,"o":"m 775 692 l 775 215 l 496 215 l 496 90 l 775 90 l 775 -1 l 493 -1 l 493 -3 l 0 -1 l 0 692 l 775 692 m 214 90 l 282 90 l 282 600 l 214 600 l 214 90 m 496 600 l 496 308 l 561 308 l 561 600 l 496 600 z "},"ç":{"ha":556,"x_min":0,"x_max":493,"o":"m 493 692 l 493 600 l 214 600 l 214 90 l 493 90 l 493 -3 l 275 -1 l 267 -24 q 311 -65 294 -39 q 328 -125 328 -92 q 294 -207 328 -174 q 213 -240 261 -240 q 132 -207 165 -240 q 99 -125 99 -174 l 179 -125 q 189 -150 179 -140 q 213 -160 199 -160 q 238 -150 228 -160 q 247 -125 247 -140 q 238 -100 247 -110 q 213 -90 228 -90 l 154 -90 l 188 -1 l 0 -1 l 0 692 l 493 692 z "},"Ç":{"ha":619,"x_min":0,"x_max":557,"o":"m 557 950 l 210 950 l 210 94 l 557 94 l 557 4 l 307 4 l 311 3 l 300 -25 q 344 -67 328 -40 q 361 -126 361 -93 q 328 -208 361 -175 q 246 -242 294 -242 q 165 -208 199 -242 q 132 -126 132 -175 l 213 -126 q 222 -151 213 -142 q 246 -161 232 -161 q 271 -151 261 -161 q 281 -126 281 -142 q 271 -101 281 -111 q 246 -92 261 -92 l 188 -92 l 224 4 l 0 4 l 0 1042 l 557 1042 l 557 950 z "},"ï":{"ha":261,"x_min":-67,"x_max":299,"o":"m 0 -1 l 0 692 l 214 692 l 214 -1 l 0 -1 m 94 874 l 94 783 l -67 783 l -67 874 l 94 874 m 299 874 l 299 783 l 138 783 l 138 874 l 299 874 z "},"î":{"ha":271,"x_min":-8,"x_max":239,"o":"m 0 -1 l 0 692 l 214 692 l 214 -1 l 0 -1 m 115 824 l 57 739 l -8 785 l 82 918 l 149 918 l 239 785 l 174 739 l 115 824 z "},"í":{"ha":268,"x_min":0,"x_max":214,"o":"m 0 -1 l 0 692 l 214 692 l 214 -1 l 0 -1 m 210 872 l 118 739 l 51 785 l 143 918 l 210 872 z "},"š":{"ha":538,"x_min":0,"x_max":475,"o":"m 239 832 l 297 917 l 363 871 l 272 738 l 206 738 l 115 871 l 181 917 l 239 832 m 0 0 l 0 92 l 261 92 l 261 286 l 0 286 l 0 379 l 0 692 l 44 692 l 475 692 l 475 600 l 214 600 l 214 379 l 475 379 l 475 286 l 474 286 l 474 0 l 429 0 l 0 0 z "},"Š":{"ha":621,"x_min":0,"x_max":558,"o":"m 297 1176 l 356 1261 l 421 1215 l 331 1082 l 264 1082 l 174 1215 l 239 1261 l 297 1176 m 210 951 l 210 558 l 349 558 l 558 558 l 558 96 l 558 4 l 0 4 l 0 96 l 349 96 l 349 468 l 0 468 l 0 558 l 0 1043 l 210 1043 l 210 1042 l 558 1042 l 558 951 l 210 951 z "},"ž":{"ha":604,"x_min":0,"x_max":542,"o":"m 300 840 l 358 925 l 424 879 l 333 746 l 267 746 l 176 879 l 242 925 l 300 840 m 517 0 l 0 0 l 282 600 l 57 600 l 57 692 l 542 692 l 269 92 l 517 92 l 517 0 z "},"Ž":{"ha":676,"x_min":0,"x_max":614,"o":"m 322 1176 l 381 1261 l 446 1215 l 356 1082 l 289 1082 l 199 1215 l 264 1261 l 322 1176 m 0 4 l 368 950 l 63 950 l 63 1042 l 614 1042 l 264 94 l 585 94 l 585 4 l 0 4 z "},"Ø":{"ha":642,"x_min":0,"x_max":579,"o":"m 506 1128 l 485 1042 l 579 1042 l 579 1 l 243 1 l 222 -90 l 89 -90 l 110 1 l 0 1 l 0 1042 l 353 1042 l 374 1128 l 506 1128 m 210 426 l 332 950 l 210 950 l 210 426 m 369 542 l 265 93 l 369 93 l 369 542 z "},"ø":{"ha":558,"x_min":0,"x_max":496,"o":"m 399 881 l 363 692 l 496 692 l 496 -1 l 493 -1 l 493 -3 l 232 -1 l 204 -154 l 113 -154 l 142 -1 l 0 -1 l 0 692 l 272 692 l 308 881 l 399 881 m 214 379 l 256 600 l 214 600 l 214 379 m 282 90 l 282 260 l 250 90 l 282 90 z "},"¢":{"ha":556,"x_min":0,"x_max":493,"o":"m 376 867 l 493 867 l 493 775 l 376 775 l 376 265 l 493 265 l 493 172 l 376 172 l 376 0 l 271 0 l 271 172 l 0 174 l 0 867 l 271 867 l 271 1042 l 376 1042 l 376 867 m 214 265 l 271 265 l 271 775 l 214 775 l 214 265 z "},"¥":{"ha":628,"x_min":0,"x_max":565,"o":"m 178 0 l 178 83 l 108 83 l 108 153 l 178 153 l 178 196 l 108 196 l 108 265 l 178 265 l 178 346 l 0 346 l 0 1042 l 210 1042 l 210 436 l 356 436 l 356 1042 l 565 1042 l 565 346 l 388 346 l 388 265 l 454 265 l 454 196 l 388 196 l 388 153 l 454 153 l 454 83 l 388 83 l 388 0 l 178 0 z "},"£":{"ha":649,"x_min":0,"x_max":586,"o":"m 188 -8 q 124 -65 149 -12 l 0 3 q 56 75 25 46 l 56 1042 l 578 1042 l 578 950 l 265 950 l 265 601 l 517 601 l 517 511 l 265 511 l 265 119 q 342 71 306 103 q 401 49 368 44 q 439 62 419 50 q 475 97 458 74 l 586 14 q 540 -35 564 -15 q 494 -67 517 -56 q 451 -85 472 -79 q 414 -92 431 -90 l 394 -92 q 247 -31 313 -92 q 188 -8 217 -3 z "},"ß":{"ha":740,"x_min":0,"x_max":678,"o":"m 633 -1 l 633 -1 l 297 -1 l 297 90 l 465 90 l 465 282 l 299 282 l 299 374 l 299 374 l 299 682 l 342 682 l 342 682 l 482 682 l 482 950 l 210 950 l 210 -1 l 0 -1 l 0 1042 l 43 1042 l 43 1042 l 554 1042 l 554 1042 l 572 1042 l 572 592 l 501 592 l 501 592 l 413 592 l 413 374 l 678 374 l 678 282 l 676 282 l 676 -1 l 633 -1 l 633 -1 z "},"b":{"ha":579,"x_min":0,"x_max":517,"o":"m 213 1042 l 213 692 l 517 692 l 517 -1 l 0 -3 l 0 90 l 303 90 l 303 600 l 213 600 l 213 164 l 0 164 l 0 1042 l 213 1042 z "},"c":{"ha":556,"x_min":0,"x_max":493,"o":"m 493 692 l 493 600 l 214 600 l 214 90 l 493 90 l 493 -3 l 0 -1 l 0 692 l 493 692 z "},"a":{"ha":556,"x_min":0,"x_max":493,"o":"m 0 -1 l 0 -1 l 0 489 l 0 489 l 0 511 l 279 511 l 279 600 l 0 600 l 0 692 l 279 692 l 279 692 l 493 692 l 493 -1 l 0 -3 l 0 -1 m 214 90 l 279 90 l 279 418 l 214 418 l 214 90 z "}}}
